<?xml version="1.0" encoding="UTF-8"?>
<svg xmlns="http://www.w3.org/2000/svg" width="32" height="33" viewBox="0 0 32 33" fill="none">
  <path d="M16 0.456055C7.16376 0.456055 0 7.61867 0 16.4549C0 25.2912 7.16376 32.4538 16 32.4538C24.8362 32.4538 32 25.2912 32 16.4549C32 7.61867 24.8362 0.456055 16 0.456055ZM25.8963 19.734H23.8171V19.6772C23.8171 19.1807 23.8171 18.9 23.8171 18.7398C23.5478 19.1216 23.2444 19.4159 22.9127 19.6192C22.5343 19.851 22.1094 19.9681 21.6515 19.9681C21.2549 19.9681 20.8993 19.876 20.5937 19.6942C20.2869 19.5113 20.0721 19.2841 19.9574 19.0193C19.8438 18.758 19.7858 18.3615 19.7858 17.8399V15.8607C19.7858 15.1949 19.7745 14.7836 19.7506 14.6381C19.7302 14.5063 19.6654 14.4109 19.5552 14.3484C19.4393 14.2825 19.2155 14.2495 18.8916 14.2495C18.594 14.2632 18.3724 14.3416 18.2372 14.4836C18.0963 14.6313 17.9156 14.9688 17.702 15.4846L15.1126 21.736C14.8615 22.3439 14.6445 22.7472 14.4502 22.9688C14.2502 23.196 14.0264 23.3108 13.7833 23.3108C13.5401 23.3108 13.2652 23.1153 13.2652 22.8358C13.2652 22.4916 13.5242 22.1996 14.0366 21.9678C14.3184 21.8428 14.5082 21.7371 14.6002 21.6519C14.69 21.5678 14.782 21.411 14.874 21.1827L15.4183 19.8215L13.2436 15.1608C13.0538 14.7586 12.897 14.5029 12.7755 14.3995C12.6584 14.3007 12.4494 14.2371 12.1596 14.2495C11.7461 14.2677 11.1757 14.579 10.4656 15.2006C10.2417 15.3926 9.89405 15.6743 9.43161 16.0391L11.4654 18.4205C11.7722 18.7785 12.0165 19.0148 12.1903 19.1227C12.3607 19.2284 12.538 19.2863 12.7164 19.2954L12.7698 19.2977V19.7351H9.76111V19.2966H9.81679C10.1213 19.2897 10.4849 19.2397 10.4849 19.0398C10.4849 19.0057 10.4394 18.8739 10.0236 18.3887L8.5681 16.6969L8.32836 16.8753V17.6843C8.32836 18.299 8.33632 18.6898 8.35336 18.8455C8.36813 18.9886 8.42721 19.0966 8.53288 19.175C8.64082 19.2545 8.83738 19.2954 9.11689 19.2954H9.1737V19.7351H6.26388V19.2954H6.39114C6.79449 19.2954 6.95356 19.225 7.01491 19.1659C7.10808 19.0773 7.15921 18.975 7.17171 18.8534C7.18534 18.7216 7.19216 18.3285 7.19216 17.6854V12.2532C7.19216 11.7045 7.14217 11.3522 7.04218 11.2068C6.94788 11.0682 6.70473 10.9977 6.31956 10.9977H6.26275V10.558H8.32723V16.3493L8.84761 15.9857C10.0531 15.1324 10.3065 14.7177 10.3065 14.5211C10.3065 14.4575 10.3065 14.2643 9.81565 14.2518H9.75998V13.8121H14.8831V14.2507H14.8286C14.5332 14.2609 14.1809 14.3086 14.1809 14.487C14.1809 14.5154 14.2071 14.637 14.4525 15.1585L15.9943 18.441L17.293 15.3312C17.5486 14.7074 17.5782 14.5881 17.5793 14.5654C17.5793 14.3677 17.3328 14.262 16.8476 14.2541H16.7919V13.8144H20.922V17.9013C20.922 18.2922 20.9448 18.5785 20.9913 18.7523C21.0345 18.9182 21.1493 19.0659 21.3311 19.192C21.514 19.3193 21.7299 19.384 21.973 19.384C22.323 19.384 22.6627 19.267 22.9831 19.0364C23.3046 18.8046 23.5262 18.5569 23.6421 18.3001C23.758 18.0445 23.8171 17.6695 23.8171 17.1866V15.8595C23.8171 15.2608 23.8012 14.8074 23.7762 14.6438C23.7557 14.512 23.691 14.4166 23.5807 14.3541C23.4648 14.2882 23.241 14.2552 22.9172 14.2552H22.8604V13.8144H24.9465V17.6888C24.9465 18.3546 24.9578 18.766 24.9817 18.9114C25.0033 19.0432 25.0669 19.1386 25.1771 19.2011C25.293 19.267 25.5168 19.3 25.8406 19.3H25.8975V19.7397L25.8963 19.734Z" fill="#ffffff"></path>
</svg>
